<svg width="111" height="48" viewBox="0 0 111 48" fill="none" xmlns="http://www.w3.org/2000/svg">
<path d="M27.0889 36H0.904785L1.4126 33.7148C2.06852 33.6725 3.10531 33.5667 4.52295 33.3975C5.94059 33.2282 6.92448 33.0589 7.47461 32.8896C8.08822 32.6992 8.64893 32.3395 9.15674 31.8105C9.68571 31.2816 10.0454 30.5833 10.2358 29.7158L14.9648 9.33984H6.93506L7.60156 6.45166H8.49023C10.3522 6.45166 12.0449 6.25065 13.5684 5.84863C15.0918 5.44661 16.4142 4.95996 17.5356 4.38867C18.6782 3.81738 19.6727 3.20378 20.519 2.54785C21.3654 1.87077 21.9896 1.31006 22.3916 0.865723H27.9775C27.5332 2.45264 27.0889 4.08187 26.6445 5.75342C26.2002 7.42497 25.7982 9.0542 25.4385 10.6411L21.2173 28.7954C21.1538 29.0493 21.0903 29.3455 21.0269 29.6841C20.9845 30.0226 20.9634 30.2977 20.9634 30.5093C20.9634 31.0171 21.0692 31.4403 21.2808 31.7788C21.5135 32.1174 21.8309 32.403 22.2329 32.6357C22.6984 32.8896 23.5448 33.1224 24.772 33.334C25.9992 33.5456 26.9408 33.6725 27.5967 33.7148L27.0889 36ZM43.9444 47.7114C39.755 47.7114 36.2215 46.791 33.3438 44.9502C30.4874 43.1094 29.0592 40.9194 29.0592 38.3804C29.0592 36.8781 29.5353 35.6086 30.4874 34.5718C31.4607 33.535 32.7514 33.0166 34.3595 33.0166C36.031 33.0166 37.3746 33.4927 38.3902 34.4448C39.427 35.3758 39.9454 36.5924 39.9454 38.0947C39.9454 39.1527 39.7656 40.2741 39.4059 41.459C39.0462 42.6439 38.7499 43.5643 38.5172 44.2202C38.8769 44.326 39.4799 44.4424 40.3263 44.5693C41.1726 44.7174 42.0084 44.7915 42.8336 44.7915C43.9127 44.7915 45.087 44.4424 46.3565 43.7441C47.6261 43.0671 48.7792 42.0832 49.816 40.7925C50.9374 39.396 51.8367 37.8302 52.5138 36.0952C53.1909 34.3602 53.5294 32.2126 53.5294 29.6523C53.5294 27.2614 52.9264 25.3677 51.7203 23.9712C50.5143 22.5535 48.811 21.8447 46.6104 21.8447C45.5313 21.8447 44.5686 21.9823 43.7223 22.2573C42.8971 22.5324 42.093 22.8921 41.3102 23.3364C40.5061 23.8019 39.8185 24.2568 39.2472 24.7012C38.6759 25.1455 38.0729 25.6956 37.4381 26.3516L35.0895 25.4946L43.2145 1.81787H70.0333L68.0338 10.5459H43.7857L40.3263 21.2417C42.294 20.078 44.0925 19.2528 45.7218 18.7661C47.351 18.2583 49.1284 18.0044 51.0538 18.0044C52.7677 18.0044 54.4181 18.1842 56.005 18.5439C57.5919 18.8825 59.1259 19.5384 60.607 20.5117C62.0458 21.4639 63.199 22.6805 64.0665 24.1616C64.934 25.6427 65.3678 27.4307 65.3678 29.5254C65.3678 34.6247 63.2625 38.9305 59.0519 42.4429C54.8624 45.9552 49.8266 47.7114 43.9444 47.7114ZM106.503 5.11865C107.815 6.38818 108.799 7.85872 109.455 9.53027C110.111 11.1807 110.439 12.958 110.439 14.8623C110.439 18.0361 109.783 21.009 108.471 23.7808C107.18 26.5526 105.456 28.9012 103.298 30.8267C101.055 32.8156 98.4945 34.3602 95.6169 35.4604C92.7605 36.5396 89.6607 37.0791 86.3176 37.0791C83.5881 37.0791 81.1866 36.7088 79.113 35.9683C77.0394 35.2065 75.3256 34.2015 73.9714 32.9531C72.6172 31.7048 71.591 30.2448 70.8928 28.5732C70.1945 26.9017 69.8454 25.082 69.8454 23.1143C69.8454 20.1732 70.385 17.4014 71.4641 14.7988C72.5432 12.1963 74.1512 9.8265 76.2883 7.68945C78.3407 5.63704 80.8798 3.97607 83.9055 2.70654C86.9312 1.43701 90.2849 0.802246 93.9665 0.802246C96.823 0.802246 99.288 1.20426 101.362 2.0083C103.456 2.79118 105.17 3.82796 106.503 5.11865ZM95.7121 26.9229C96.7701 24.6589 97.5741 22.2044 98.1242 19.5596C98.6955 16.9147 98.9812 14.1535 98.9812 11.2759C98.9812 10.0698 98.8754 9.02246 98.6638 8.13379C98.4733 7.24512 98.1454 6.44108 97.6799 5.72168C97.2355 5.02344 96.6643 4.47331 95.966 4.07129C95.2678 3.64811 94.4214 3.43652 93.427 3.43652C91.7342 3.43652 90.1368 4.07129 88.6345 5.34082C87.1322 6.58919 85.7357 8.5887 84.445 11.3394C83.4082 13.561 82.6254 15.9943 82.0964 18.6392C81.5674 21.284 81.3029 23.8971 81.3029 26.4785C81.3029 27.8115 81.3981 28.9012 81.5886 29.7476C81.779 30.5939 82.107 31.3979 82.5725 32.1597C82.9956 32.8579 83.5669 33.4186 84.2863 33.8418C85.0057 34.265 85.8732 34.4766 86.8889 34.4766C88.6662 34.4766 90.3166 33.7889 91.84 32.4136C93.3635 31.0382 94.6542 29.208 95.7121 26.9229Z" fill="url(#paint0_linear)"/>
<defs>
<linearGradient id="paint0_linear" x1="1" y1="-2.68323" x2="84.1857" y2="21.8007" gradientUnits="userSpaceOnUse">
<stop stop-color="#053959"/>
<stop offset="1" stop-color="#496373"/>
</linearGradient>
</defs>
</svg>
