<svg width="41" height="48" viewBox="0 0 41 48" fill="none" xmlns="http://www.w3.org/2000/svg">
<path d="M26.375 0.802246C29.3796 0.802246 31.8234 1.11963 33.7065 1.75439C35.6108 2.368 37.092 3.12972 38.1499 4.03955C39.2078 4.94938 39.9378 5.95443 40.3398 7.05469C40.763 8.15495 40.9746 9.19173 40.9746 10.165C40.9746 11.2441 40.7207 12.4079 40.2129 13.6562C39.7262 14.9046 38.9434 16.0789 37.8643 17.1792C36.7852 18.2795 35.3569 19.2951 33.5796 20.2261C31.8234 21.1571 29.6546 21.8765 27.0732 22.3843L26.9463 22.8921C28.3216 22.9344 29.6546 23.146 30.9453 23.5269C32.2572 23.8866 33.3892 24.3838 34.3413 25.0186C35.3781 25.7168 36.2244 26.6372 36.8804 27.7798C37.5363 28.9224 37.8643 30.3083 37.8643 31.9375C37.8643 34.265 37.2507 36.4126 36.0234 38.3804C34.8174 40.3481 33.1564 42.0197 31.0405 43.395C28.7977 44.855 26.3962 45.9341 23.8359 46.6323C21.2969 47.3517 18.377 47.7114 15.0762 47.7114C10.7809 47.7114 7.31087 46.8016 4.66602 44.9819C2.04232 43.1623 0.730469 40.9089 0.730469 38.2217C0.730469 36.7194 1.20654 35.4499 2.15869 34.4131C3.132 33.3763 4.42269 32.8579 6.03076 32.8579C7.70231 32.8579 9.0459 33.334 10.0615 34.2861C11.0983 35.2383 11.6167 36.4655 11.6167 37.9678C11.6167 39.0469 11.4368 40.1154 11.0771 41.1733C10.7386 42.2524 10.4424 43.1094 10.1885 43.7441C10.6751 44.0192 11.257 44.2625 11.9341 44.4741C12.6112 44.6857 13.4152 44.7915 14.3462 44.7915C15.7638 44.7915 17.1497 44.4953 18.5039 43.9028C19.8792 43.3104 21.0853 42.4535 22.1221 41.332C23.2646 40.0837 24.1533 38.6449 24.7881 37.0156C25.4229 35.4076 25.7402 33.3128 25.7402 30.7314C25.7402 29.0811 25.2959 27.7057 24.4072 26.6055C23.5397 25.5052 21.8682 24.9551 19.3926 24.9551H15.3618L16.2505 21.2417H19.1069C22.175 21.2417 24.6294 20.1943 26.4702 18.0996C28.311 15.9837 29.2314 13.0638 29.2314 9.33984C29.2314 7.64714 28.7871 6.30355 27.8984 5.30908C27.0098 4.29346 25.6027 3.78564 23.6772 3.78564C22.7463 3.78564 21.7624 3.92318 20.7256 4.19824C19.6888 4.47331 18.8319 4.79069 18.1548 5.15039C18.3875 5.86979 18.6626 6.76904 18.98 7.84814C19.2974 8.90609 19.4561 9.88997 19.4561 10.7998C19.4561 12.3021 18.9588 13.5293 17.9644 14.4814C16.9699 15.4124 15.6369 15.8779 13.9653 15.8779C12.3784 15.8779 11.1089 15.3595 10.1567 14.3228C9.22575 13.286 8.76025 12.027 8.76025 10.5459C8.76025 8.09147 10.453 5.85921 13.8384 3.84912C17.245 1.81787 21.4238 0.802246 26.375 0.802246Z" fill="url(#paint0_linear)"/>
<defs>
<linearGradient id="paint0_linear" x1="2" y1="3.91925" x2="35.335" y2="8.24783" gradientUnits="userSpaceOnUse">
<stop stop-color="#053959"/>
<stop offset="1" stop-color="#496373"/>
</linearGradient>
</defs>
</svg>
