<svg width="38" height="38" viewBox="0 0 38 38" fill="none" xmlns="http://www.w3.org/2000/svg">
<path d="M19.0003 0.666626C8.88033 0.666626 0.666992 8.87996 0.666992 19C0.666992 29.12 8.88033 37.3333 19.0003 37.3333H28.167V33.6666H19.0003C11.0437 33.6666 4.33366 26.9566 4.33366 19C4.33366 11.0433 11.0437 4.33329 19.0003 4.33329C26.957 4.33329 33.667 11.0433 33.667 19V21.6216C33.667 23.07 32.3653 24.5 30.917 24.5C29.4687 24.5 28.167 23.07 28.167 21.6216V19C28.167 13.94 24.0603 9.83329 19.0003 9.83329C13.9403 9.83329 9.83366 13.94 9.83366 19C9.83366 24.06 13.9403 28.1666 19.0003 28.1666C21.5303 28.1666 23.8403 27.14 25.4903 25.4716C26.682 27.1033 28.7353 28.1666 30.917 28.1666C34.5287 28.1666 37.3337 25.2333 37.3337 21.6216V19C37.3337 8.87996 29.1203 0.666626 19.0003 0.666626ZM19.0003 24.5C15.957 24.5 13.5003 22.0433 13.5003 19C13.5003 15.9566 15.957 13.5 19.0003 13.5C22.0437 13.5 24.5003 15.9566 24.5003 19C24.5003 22.0433 22.0437 24.5 19.0003 24.5Z" fill="white"/>
</svg>
