<svg width="35" height="35" viewBox="0 0 35 35" fill="none" xmlns="http://www.w3.org/2000/svg">
<path d="M21.4034 2.60876C21.4742 2.34463 21.647 2.11938 21.8837 1.98249C22.1204 1.8456 22.4018 1.80825 22.666 1.87864C25.172 2.55252 27.4569 3.8731 29.2919 5.70806C31.1268 7.54303 32.4473 9.82796 33.1212 12.334C33.157 12.4651 33.1666 12.602 33.1494 12.7368C33.1321 12.8716 33.0884 13.0017 33.0207 13.1196C32.953 13.2374 32.8626 13.3408 32.7549 13.4236C32.6471 13.5064 32.524 13.5671 32.3927 13.6022C32.2614 13.6373 32.1244 13.6461 31.9897 13.6281C31.855 13.61 31.7251 13.5656 31.6077 13.4972C31.4902 13.4288 31.3874 13.3379 31.3052 13.2296C31.223 13.1214 31.163 12.9979 31.1286 12.8664C30.5489 10.7104 29.4127 8.74463 27.8341 7.16594C26.2554 5.58726 24.2896 4.45113 22.1336 3.87135C22.0027 3.8364 21.88 3.77601 21.7725 3.69364C21.665 3.61127 21.5748 3.50853 21.507 3.39128C21.4392 3.27404 21.3951 3.14459 21.3774 3.01032C21.3596 2.87606 21.3685 2.7396 21.4034 2.60876ZM20.7097 9.18521C21.9334 9.51419 23.0491 10.159 23.9451 11.0549C24.841 11.9509 25.4858 13.0666 25.8148 14.2902C25.8854 14.5545 26.0581 14.7799 26.2949 14.9168C26.5316 15.0537 26.8131 15.091 27.0774 15.0204C27.3416 14.9498 27.567 14.7771 27.7039 14.5403C27.8409 14.3035 27.8781 14.022 27.8075 13.7578C27.3844 12.1841 26.5551 10.7493 25.4029 9.59709C24.2507 8.44484 22.8158 7.61562 21.2422 7.1925C21.1114 7.15753 20.9749 7.14868 20.8407 7.16645C20.7064 7.18423 20.577 7.22827 20.4597 7.29607C20.2229 7.43299 20.0502 7.65837 19.9796 7.92262C19.909 8.18687 19.9463 8.46835 20.0832 8.70513C20.2201 8.94191 20.4455 9.1146 20.7097 9.18521ZM34.4577 26.0487C34.1697 28.288 33.0763 30.3458 31.3818 31.8378C29.6874 33.3298 27.5077 34.1539 25.25 34.1562C11.7924 34.1562 0.84375 23.2076 0.84375 9.75C0.846049 7.49231 1.67015 5.31267 3.16211 3.61822C4.65408 1.92376 6.71186 0.830378 8.95109 0.542307C9.46804 0.480081 9.99124 0.586873 10.4425 0.846712C10.8937 1.10655 11.2486 1.50547 11.4543 1.98382L14.9074 10.041C15.0642 10.4056 15.1281 10.8035 15.0935 11.1989C15.0589 11.5943 14.9268 11.9749 14.7091 12.3068L11.8498 16.6757C11.8174 16.7227 11.7978 16.7773 11.7928 16.8341C11.7878 16.8909 11.7975 16.9481 11.8211 17C13.1478 19.7066 15.3424 21.8913 18.055 23.2057C18.1072 23.2291 18.1646 23.2385 18.2216 23.233C18.2786 23.2276 18.3332 23.2074 18.38 23.1745L22.6829 20.3052C23.0157 20.0824 23.3989 19.9465 23.7977 19.9099C24.1965 19.8733 24.5981 19.9371 24.9659 20.0955L33.016 23.5457C33.4944 23.7513 33.8934 24.1062 34.1532 24.5574C34.4131 25.0086 34.5199 25.5318 34.4577 26.0487ZM32.4113 25.7902C32.419 25.7174 32.4029 25.6441 32.3654 25.5812C32.3279 25.5183 32.2711 25.4692 32.2034 25.4413L24.1534 21.9913C24.1009 21.9688 24.0435 21.9597 23.9865 21.965C23.9296 21.9702 23.8748 21.9895 23.8272 22.0212L19.5243 24.8906C19.1787 25.1219 18.7789 25.2594 18.3641 25.2896C17.9493 25.3199 17.5338 25.2419 17.1583 25.0632C14.0295 23.5469 11.4982 21.0271 9.96773 17.9051C9.78832 17.5318 9.70844 17.1184 9.73584 16.7052C9.76324 16.2919 9.897 15.8927 10.1241 15.5463L12.9833 11.1772C13.0144 11.1298 13.0333 11.0754 13.0383 11.0188C13.0432 10.9623 13.0341 10.9054 13.0116 10.8533L9.55867 2.79645C9.53304 2.73507 9.49008 2.68249 9.43505 2.64513C9.38001 2.60777 9.31529 2.58725 9.24878 2.58607C9.23573 2.58611 9.2227 2.58697 9.20977 2.58865C7.46844 2.81289 5.86831 3.66339 4.70829 4.98128C3.54827 6.29917 2.9077 7.9943 2.90625 9.75C2.91294 15.6739 5.26915 21.3532 9.45797 25.542C13.6468 29.7308 19.3261 32.0871 25.25 32.0937C27.0057 32.0923 28.7008 31.4517 30.0187 30.2917C31.3366 29.1317 32.1871 27.5316 32.4113 25.7902Z" fill="#566FA0"/>
</svg>
